Coordinates
version=1
nRows=8
nColumns=34
inDegrees=yes

Units are S.I. units (second, meters, Newtons, ...)
If the header above contains a line with 'inDegrees', this indicates whether rotational values are in degrees (yes) or radians (no).

endheader
time	pelvis_tilt	pelvis_list	pelvis_rotation	pelvis_tx	pelvis_ty	pelvis_tz	hip_flexion_r	hip_adduction_r	hip_rotation_r	knee_angle_r	ankle_angle_r	subtalar_angle_r	mtp_angle_r	hip_flexion_l	hip_adduction_l	hip_rotation_l	knee_angle_l	ankle_angle_l	subtalar_angle_l	mtp_angle_l	lumbar_extension	lumbar_bending	lumbar_rotation	arm_flex_r	arm_add_r	arm_rot_r	elbow_flex_r	pro_sup_r	arm_flex_l	arm_add_l	arm_rot_l	elbow_flex_l	pro_sup_l
      3.75000000	     -3.26509471	      0.91464389	     -5.77436692	      0.86854879	      1.14225997	     -0.16830685	     -0.99486746	     -6.28802326	     -7.39882950	      1.74966755	      6.19882343	     -4.34384258	      0.00000000	     -3.02366456	     -0.08055293	     -8.86147846	      0.00000000	      6.49865939	     -8.98051149	      0.00000000	      1.65799190	     -1.40251941	      5.78636245	     -7.22935987	     -6.55635049	     -9.27731596	     33.05503059	     95.64878280	     -4.66681458	     -5.54750908	     -3.92428415	     29.11279830	     95.73454108
      3.76666670	     -3.32842670	      0.78850928	     -5.83849571	      0.86866916	      1.14259313	     -0.16832604	     -0.81742283	     -6.12336036	     -6.87335442	      1.80921776	      6.73881713	     -4.27804362	      0.00000000	     -2.96114543	     -0.22247304	     -8.72716220	      0.00000000	      6.71749846	     -8.99935193	      0.00000000	      1.67747389	     -1.17568522	      5.81158101	     -7.12693478	     -6.64635920	     -9.25165882	     33.00424218	     95.69885573	     -4.64571870	     -5.46717052	     -3.99847397	     29.09088228	     95.81111607
      3.78333330	     -3.30745718	      0.78235306	     -5.83457863	      0.86868774	      1.14290757	     -0.16839139	     -0.79706852	     -6.10788832	     -6.86551351	      1.80488361	      6.74087372	     -4.27431548	      0.00000000	     -2.95626958	     -0.20929479	     -8.72482156	      0.00000000	      6.71755245	     -8.99768310	      0.00000000	      1.67880836	     -1.17658057	      5.81040346	     -7.12714031	     -6.64907380	     -9.25141316	     33.00355793	     95.69950663	     -4.64347721	     -5.46615854	     -3.99930245	     29.09103765	     95.81213019
      3.80000000	     -3.35409518	      0.72405673	     -5.83931035	      0.86862750	      1.14329431	     -0.16841280	     -0.67067248	     -6.03463915	     -6.51567766	      1.88713781	      6.90451595	     -4.16123652	      0.00000000	     -2.87157675	     -0.27437443	     -8.56786875	      0.00000000	      6.69745157	     -8.91274474	      0.00000000	      1.64554808	     -1.11282172	      5.79000611	     -7.09054894	     -6.70479440	     -9.22727496	     32.98383730	     95.72288772	     -4.53691151	     -5.43772341	     -4.02542921	     29.08678918	     95.84714000
      3.81666670	     -3.34456138	      0.72155451	     -5.83761091	      0.86855357	      1.14363545	     -0.16842397	     -0.66758001	     -6.02470021	     -6.50837483	      1.89072715	      6.91075986	     -4.15967908	      0.00000000	     -2.85935878	     -0.26349443	     -8.56778993	      0.00000000	      6.69839870	     -8.91285533	      0.00000000	      1.64732207	     -1.10586453	      5.79398228	     -7.08733059	     -6.70421487	     -9.22536100	     32.98370900	     95.72385137	     -4.53524965	     -5.43796358	     -4.02704370	     29.08685718	     95.84838931
      3.83333330	     -3.43839997	      0.62817580	     -5.91796932	      0.86869349	      1.14390498	     -0.16838170	     -0.48165948	     -5.92420907	     -6.20853921	      2.04273985	      7.14850096	     -4.08945082	      0.00000000	     -2.73417484	     -0.36130073	     -8.51811176	      0.00000000	      6.71368734	     -8.89699947	      0.00000000	      1.61252470	     -0.94219447	      5.89710425	     -6.99044697	     -6.75244358	     -9.15171717	     32.94530298	     95.76314315	     -4.30431737	     -5.44018370	     -4.09062553	     29.14117898	     95.90068253
      3.85000000	     -3.38595113	      0.57206989	     -5.91858483	      0.87712092	      1.14506472	     -0.16469871	     -0.66656869	     -5.81396666	     -6.06643698	      2.02432521	      7.24630872	     -4.03189628	      0.00000000	     -2.91283905	     -0.45422255	     -8.64691416	      0.00000000	      6.57324554	     -8.89859404	      0.00000000	      1.82280614	     -0.89449116	      6.02595843	     -7.22788410	     -6.68346425	     -9.05051749	     32.83791297	     95.81215616	     -4.47958080	     -5.50606199	     -4.17844326	     29.07822413	     95.96495076
      3.86666670	     -3.43640603	      0.58882445	     -5.92112849	      0.87694205	      1.14536032	     -0.16487123	     -0.70778702	     -5.79998975	     -6.06115534	      2.05196988	      7.24465543	     -4.02921622	      0.00000000	     -2.93061837	     -0.46381946	     -8.64779242	      0.00000000	      6.57178639	     -8.89854200	      0.00000000	      1.82461901	     -0.89808197	      6.02986964	     -7.23664579	     -6.68154535	     -9.04871132	     32.83462956	     95.81304842	     -4.49180450	     -5.50664866	     -4.17986764	     29.07354396	     95.96607688
